# xmcd
#
# Track frame offsets: 
#        150
#        12830
#        25916
#        42008
#        52322
#        64941
#        73747
#        89753
#        100767
#        112104
#        129525
#        142929
#        156803
#        175685
#        193440
#        211384
#        225208
#        236604
#        253185
#        268128
#        277789
#        289096
#        301602
#        330403
#
# Disc length: 4677 seconds
#
# Revision: 7
# Processed by: cddbd v1.5.2PL0 Copyright (c) Steve Scherf et al.
# Submitted via: ExactAudioCopy v1.0b3
#
DISCID=5b124318
DTITLE=Parsons, Gram - Sacred Hearts and Fallen Angels: The Gram Parsons
DTITLE=Anthology [Disc 1]
DYEAR=2001
DGENRE=Country
TTITLE0=Blue Eyes
TTITLE1=Luxury Liner
TTITLE2=Do You Know How It Feels To Be Lonesome?
TTITLE3=I Must Be Somebody Else You've Known
TTITLE4=Miller's Cave
TTITLE5=Knee Deep In The Blues
TTITLE6=Hickory Wind
TTITLE7=You're Still On My Mind
TTITLE8=The Christian Life
TTITLE9=You Don't Miss Your Water
TTITLE10=One Hundred Years From Now
TTITLE11=Christine's Tune (Devil In Disguise)
TTITLE12=Sin City
TTITLE13=Do Right Woman
TTITLE14=Dark End Of The Street
TTITLE15=Wheels
TTITLE16=Juanita
TTITLE17=Hot Burrito #1
TTITLE18=Hot Burrito #2
TTITLE19=High Fashion Queen
TTITLE20=Older Guys
TTITLE21=Cody, Cody
TTITLE22=Wild Horses
TTITLE23=Sing Me Back Home
EXTD=YEAR: 2001 ID3G:   2 YEAR: 2001 ID3G:   2
EXTT0=
EXTT1=
EXTT2=
EXTT3=
EXTT4=
EXTT5=
EXTT6=
EXTT7=
EXTT8=
EXTT9=
EXTT10=
EXTT11=
EXTT12=
EXTT13=
EXTT14=
EXTT15=
EXTT16=
EXTT17=
EXTT18=
EXTT19=
EXTT20=
EXTT21=
EXTT22=
EXTT23=
PLAYORDER=
